<svg width="37" height="37" viewBox="0 0 37 37" fill="none" xmlns="http://www.w3.org/2000/svg">
<path d="M34.127 18.755C34.127 27.6334 27.075 34.8308 18.376 34.8308C15.0581 34.8308 11.9797 33.7837 9.44088 31.9957L4.05702 33.3694L5.46785 27.9697C3.6764 25.3604 2.62512 22.183 2.62512 18.755C2.62512 9.87659 9.67705 2.6792 18.376 2.6792C27.075 2.6792 34.127 9.87659 34.127 18.755Z" fill="#767EEF"/>
<path fill-rule="evenodd" clip-rule="evenodd" d="M18.5 37C28.7173 37 37 28.7173 37 18.5C37 8.28273 28.7173 0 18.5 0C8.28273 0 0 8.28273 0 18.5C0 21.8179 0.87346 24.9319 2.40298 27.6244L0 37L9.66607 34.7586C12.2911 36.1879 15.3007 37 18.5 37ZM18.5 34.1538C27.1454 34.1538 34.1538 27.1454 34.1538 18.5C34.1538 9.85462 27.1454 2.84615 18.5 2.84615C9.85462 2.84615 2.84615 9.85462 2.84615 18.5C2.84615 21.838 3.89095 24.932 5.67136 27.4728L4.26923 32.7308L9.61991 31.3931C12.1431 33.1342 15.2025 34.1538 18.5 34.1538Z" fill="white"/>
<path d="M13.7821 10.0477C13.3452 9.15199 12.6749 9.23129 11.9978 9.23129C10.7877 9.23129 8.90088 10.7106 8.90088 13.4639C8.90088 15.7203 9.87507 18.1902 13.1578 21.8851C16.3259 25.451 20.4885 27.2956 23.9443 27.2328C27.4001 27.17 28.1111 24.1348 28.1111 23.1098C28.1111 22.6555 27.8349 22.4289 27.6446 22.3673C26.4669 21.7904 24.2949 20.7156 23.8007 20.5137C23.3065 20.3118 23.0485 20.5849 22.8881 20.7335C22.4399 21.1694 21.5515 22.454 21.2474 22.743C20.9432 23.0319 20.4897 22.8857 20.301 22.7764C19.6065 22.492 17.7236 21.6372 16.2227 20.1523C14.3666 18.3158 14.2576 17.684 13.9079 17.1216C13.6282 16.6716 13.8334 16.3956 13.9359 16.2749C14.3358 15.804 14.888 15.0768 15.1357 14.7155C15.3833 14.3542 15.1867 13.8056 15.0688 13.4639C14.5614 11.9943 14.1316 10.7642 13.7821 10.0477Z" fill="white"/>
</svg>
